<?xml version="1.0" standalone="no"?>
<!DOCTYPE svg PUBLIC "-//W3C//DTD SVG 20010904//EN"
 "http://www.w3.org/TR/2001/REC-SVG-20010904/DTD/svg10.dtd">
<svg version="1.0" xmlns="http://www.w3.org/2000/svg"
 width="1024.000000pt" height="1024.000000pt" viewBox="0 0 1024.000000 1024.000000"
 preserveAspectRatio="xMidYMid meet">

<g transform="translate(0.000000,1024.000000) scale(0.100000,-0.100000)"
fill="#000000" stroke="none">
<path d="M4862 8760 c67 -36 112 -118 110 -202 -1 -74 -10 -104 -35 -117 -19
-10 -19 -11 -2 -6 20 5 20 5 1 -10 -11 -8 -16 -15 -12 -15 5 0 3 -6 -4 -14 -6
-8 -19 -12 -28 -9 -14 4 -14 3 -3 -5 12 -8 8 -14 -22 -28 -20 -9 -34 -21 -31
-25 15 -24 -90 -21 -171 6 -14 4 -12 2 5 -9 14 -8 35 -15 47 -16 27 0 20 31
83 -365 28 -176 79 -498 113 -715 l62 -395 30 4 c17 3 40 5 53 5 12 1 22 3 22
6 0 3 -16 102 -35 220 -20 118 -72 449 -116 735 -75 490 -79 521 -62 530 64
36 123 139 123 215 0 44 -26 118 -55 156 -27 35 -80 74 -100 74 -5 -1 7 -10
27 -20z"/>
<path d="M4260 8366 c-135 -78 -408 -234 -607 -346 l-362 -203 16 -30 c14 -29
15 -94 0 -187 -5 -30 -28 -70 -41 -70 -6 0 -27 -16 -47 -36 -26 -25 -48 -37
-78 -41 -22 -3 -41 -10 -41 -15 0 -7 149 -493 252 -819 l21 -65 36 18 c19 10
41 18 48 18 7 0 13 3 13 7 0 7 -178 595 -231 761 -16 51 -29 98 -28 105 0 6
13 22 28 34 l28 22 69 -36 c362 -189 839 -451 1258 -692 126 -73 230 -130 231
-129 1 2 13 24 27 49 l24 45 -60 34 c-34 18 -209 117 -391 220 -347 197 -659
369 -936 514 l-166 87 5 52 c2 29 5 53 6 53 0 1 145 83 321 182 502 282 889
503 900 513 5 6 5 9 -2 9 -6 0 -17 20 -24 45 -7 25 -16 45 -19 44 -3 0 -115
-64 -250 -143z"/>
<path d="M6589 8477 c-67 -45 -70 -139 -7 -192 28 -24 39 -27 87 -23 70 6 111
46 111 109 0 107 -104 165 -191 106z"/>
<path d="M7833 8486 c-57 -26 -79 -101 -46 -156 34 -58 113 -68 165 -21 28 25
33 36 33 75 0 37 -5 51 -30 76 -36 36 -79 45 -122 26z"/>
<path d="M4594 8371 c7 -11 46 -35 46 -28 0 3 -12 12 -26 22 -15 9 -23 12 -20
6z"/>
<path d="M5592 8053 c-43 -21 -79 -64 -92 -111 -14 -51 -12 -71 9 -117 78
-168 308 -139 337 42 12 75 -35 161 -103 189 -43 19 -110 17 -151 -3z"/>
<path d="M3251 7854 c13 -17 26 -30 28 -27 3 2 -8 16 -24 31 l-28 27 24 -31z"/>
<path d="M6856 7676 c-47 -18 -94 -60 -112 -103 -27 -64 -11 -166 34 -216 59
-65 187 -76 257 -23 108 83 94 269 -25 331 -41 21 -111 26 -154 11z"/>
<path d="M2900 7536 c0 -2 8 -10 18 -17 15 -13 16 -12 3 4 -13 16 -21 21 -21
13z"/>
<path d="M2812 7294 c-67 -113 -122 -210 -122 -215 0 -5 6 -9 14 -9 7 0 25
-10 40 -21 15 -12 31 -18 35 -13 11 12 251 414 251 420 0 2 -3 3 -7 2 -11 -4
-77 24 -84 34 -3 5 -60 -84 -127 -198z"/>
<path d="M3047 7448 c2 -5 13 -8 24 -8 10 0 19 3 19 8 0 4 -11 7 -24 7 -13 0
-22 -3 -19 -7z"/>
<path d="M7795 7358 c-120 -42 -141 -205 -36 -275 65 -44 171 -23 210 41 51
83 25 181 -59 224 -48 24 -69 26 -115 10z"/>
<path d="M6140 7098 c-65 -44 -74 -133 -19 -188 55 -54 128 -51 180 7 28 33
31 41 26 86 -9 97 -109 148 -187 95z"/>
<path d="M2808 6963 c34 -62 42 -192 14 -234 -62 -93 -213 -157 -297 -126 -20
7 -22 -2 -56 -245 -20 -139 -35 -253 -35 -254 1 -1 24 -4 53 -7 l51 -6 7 52
c4 29 20 139 36 244 16 106 29 195 29 198 0 3 10 5 23 5 32 1 107 37 139 67
l27 25 138 -72 c76 -40 184 -97 240 -127 l101 -53 26 46 c15 26 25 48 24 49
-2 2 -37 19 -78 40 -41 20 -148 75 -237 122 l-163 86 0 61 c0 60 -32 154 -58
170 -6 4 1 -15 16 -41z"/>
<path d="M5227 6771 c30 -36 60 -107 68 -163 6 -39 3 -54 -15 -85 -37 -61 -82
-103 -137 -129 -65 -30 -92 -30 -168 1 -33 13 -51 17 -40 9 11 -8 36 -20 56
-26 l37 -10 6 -122 c5 -89 35 -785 36 -826 0 -11 100 3 100 14 0 29 -30 743
-35 837 l-6 106 41 18 c38 17 81 58 105 100 10 16 25 13 220 -48 116 -37 466
-143 779 -237 313 -93 572 -172 574 -175 3 -2 -15 -13 -39 -23 -106 -46 -784
-368 -1240 -590 l-227 -110 -33 32 c-21 19 -18 14 8 -14 26 -28 44 -59 48 -82
8 -43 -19 -192 -41 -225 -18 -28 -93 -62 -164 -73 l-55 -9 55 3 c31 1 71 10
89 19 l33 17 128 -113 c483 -426 858 -762 852 -764 -4 -1 -356 -27 -782 -58
-426 -30 -805 -57 -842 -61 l-66 -6 -17 35 c-9 19 -26 43 -38 54 -22 18 -22
18 -6 -2 58 -74 72 -127 51 -200 -30 -103 -94 -155 -205 -165 l-72 -7 63 -2
c45 -1 74 5 101 18 49 25 110 94 118 132 4 19 13 31 27 34 11 2 215 18 451 35
237 17 610 44 829 60 220 17 403 30 408 30 4 0 8 19 8 43 0 26 10 63 24 92
l25 48 -32 26 c-17 14 -193 170 -392 346 -198 176 -407 360 -463 410 -66 58
-100 95 -97 104 3 8 11 45 17 82 l12 68 400 192 c221 106 556 266 745 355 189
90 346 166 349 168 2 3 -1 18 -7 34 -13 31 -17 118 -7 150 7 21 49 7 -624 208
-689 205 -940 286 -940 302 0 38 -27 97 -59 131 -20 20 -26 26 -14 12z"/>
<path d="M2420 6676 c0 -2 14 -14 30 -26 17 -12 30 -19 30 -16 0 2 -13 14 -30
26 -16 12 -30 19 -30 16z"/>
<path d="M4260 6529 c-372 -62 -526 -85 -529 -77 -2 7 -20 28 -40 48 -22 22
-26 24 -9 5 14 -16 36 -50 49 -74 22 -42 22 -44 6 -118 -27 -121 -83 -174
-205 -192 -52 -8 -53 -9 -16 -10 66 -2 129 26 172 74 35 40 62 100 62 137 0
12 102 32 498 96 618 101 582 96 581 86 0 -8 -143 -110 -1170 -835 l-345 -244
13 -44 c22 -74 14 -151 -16 -151 -13 0 -13 2 -2 9 8 5 9 11 3 15 -14 9 -22
-20 -9 -33 8 -8 7 -14 -2 -23 -11 -10 -13 -10 -7 0 4 6 2 12 -4 12 -6 0 -9 -8
-6 -18 10 -31 -67 -88 -137 -102 -37 -7 -38 -8 -11 -9 62 -2 184 82 184 127 0
15 -50 16 485 -13 253 -14 603 -33 778 -43 l317 -17 0 53 c0 35 -4 52 -12 52
-7 0 -211 11 -453 25 -242 13 -583 32 -757 42 -175 9 -318 20 -318 23 1 3 222
160 492 350 475 333 628 441 920 648 136 96 137 97 118 117 -26 27 -59 104
-62 143 -2 25 -7 32 -23 31 -11 -1 -256 -41 -545 -90z"/>
<path d="M8465 6415 c-54 -19 -119 -90 -141 -153 -15 -41 -23 -52 -41 -52 -12
0 -176 -11 -365 -25 -615 -44 -602 -44 -611 -29 -16 27 -60 75 -78 85 -11 5 0
-9 24 -33 81 -82 93 -142 46 -247 -41 -94 -106 -134 -214 -134 -38 -1 -79 1
-89 4 -16 3 -22 -5 -33 -51 -30 -121 -161 -619 -274 -1042 -65 -246 -119 -454
-119 -463 0 -8 8 -15 18 -15 10 0 28 -7 40 -16 13 -9 25 -14 27 -13 2 2 97
357 212 789 l208 785 52 11 c109 24 181 92 198 187 4 20 11 37 15 37 4 0 227
16 496 35 268 19 488 34 488 32 16 -49 74 -118 107 -129 17 -6 25 23 -254
-848 -135 -421 -266 -832 -293 -915 -26 -82 -49 -155 -51 -162 -3 -6 10 -14
27 -18 46 -10 104 -67 130 -127 44 -102 6 -229 -84 -279 -24 -13 -67 -26 -106
-29 l-65 -7 59 -2 c134 -3 226 92 226 233 0 58 -22 111 -62 153 l-31 32 37
118 c70 222 517 1618 550 1718 32 97 34 100 67 106 52 10 83 25 123 60 69 60
98 149 76 238 -33 139 -177 215 -315 166z"/>
<path d="M3279 6067 c-64 -166 -184 -484 -194 -515 -6 -20 -4 -23 12 -18 10 3
34 2 53 -3 l36 -8 115 301 116 301 29 -2 c22 -1 17 2 -17 13 -26 8 -58 25 -72
38 l-26 24 -52 -131z"/>
<path d="M2615 6026 c60 -62 82 -158 50 -219 -8 -15 -10 -25 -5 -22 14 9 12
-1 -5 -35 -17 -33 -50 -54 -67 -44 -7 5 -8 3 -3 -6 6 -10 4 -12 -9 -7 -9 4
-15 3 -12 -2 8 -13 -50 -31 -99 -31 -23 0 -62 7 -86 15 -24 9 -39 12 -34 7 41
-37 162 -42 227 -9 l45 23 84 -74 c46 -41 112 -99 146 -129 l63 -55 39 35 39
35 -151 134 -152 134 3 70 c5 84 -12 132 -66 187 -20 20 -39 37 -42 37 -4 0
12 -20 35 -44z"/>
<path d="M1889 5594 c-184 -135 -346 -259 -361 -275 -31 -33 -35 -66 -14 -108
8 -15 74 -121 146 -235 l131 -208 -137 -389 -136 -390 16 -67 c10 -37 49 -186
87 -332 64 -239 88 -316 89 -284 0 6 18 17 40 24 22 7 40 19 40 26 0 6 -31
126 -69 266 -38 139 -74 278 -81 309 l-12 56 136 391 c113 329 134 396 126
418 -6 14 -69 118 -141 230 -72 113 -132 212 -133 221 -1 15 90 86 498 386 77
56 143 104 148 107 4 3 -3 27 -15 53 l-23 47 -335 -246z"/>
<path d="M2300 5715 c13 -14 26 -25 28 -25 3 0 -5 11 -18 25 -13 14 -26 25
-28 25 -3 0 5 -11 18 -25z"/>
<path d="M3275 5457 c10 -15 20 -25 23 -22 3 3 -5 16 -17 28 l-23 22 17 -28z"/>
<path d="M2935 5150 c10 -11 20 -20 23 -20 3 0 -3 9 -13 20 -10 11 -20 20 -23
20 -3 0 3 -9 13 -20z"/>
<path d="M2995 5087 c-7 -18 -118 -469 -164 -667 -23 -96 -44 -182 -47 -191
-3 -12 4 -18 33 -22 21 -2 44 -6 52 -8 10 -3 19 14 29 56 49 205 193 793 198
810 4 11 3 17 -1 13 -4 -3 -27 0 -52 7 -33 10 -45 10 -48 2z"/>
<path d="M4930 5056 c0 -2 8 -10 18 -17 15 -13 16 -12 3 4 -13 16 -21 21 -21
13z"/>
<path d="M4907 4907 c-35 -56 -158 -248 -272 -427 -114 -178 -209 -329 -211
-335 -2 -5 14 -20 35 -32 l39 -22 63 97 c34 53 159 248 277 432 198 310 216
335 240 333 l27 -2 -25 9 c-14 4 -37 11 -52 14 -15 3 -33 13 -42 21 -13 13
-22 3 -79 -88z"/>
<path d="M6681 4195 c48 -54 83 -148 73 -192 -12 -48 -44 -104 -56 -97 -7 5
-8 3 -4 -5 11 -17 -21 -50 -69 -72 -22 -10 -34 -19 -27 -19 38 0 142 91 142
125 0 8 7 15 16 15 8 0 191 -38 405 -85 215 -47 391 -85 393 -85 1 0 3 18 4
41 1 22 4 44 7 49 2 4 -178 47 -401 96 -392 86 -405 90 -411 114 -10 43 -40
94 -70 120 l-28 25 26 -30z"/>
<path d="M2950 4143 c0 -7 4 -13 8 -13 5 0 23 -28 40 -63 35 -70 42 -127 16
-127 -10 0 -14 -6 -10 -15 3 -8 3 -22 -1 -31 -5 -13 -8 -13 -15 -2 -7 9 -8 7
-5 -9 3 -14 0 -21 -7 -20 -6 1 -10 -4 -8 -12 4 -19 -19 -43 -35 -37 -7 3 -13
-1 -13 -8 0 -18 -45 -36 -112 -46 -50 -7 -51 -8 -13 -9 22 0 58 4 80 10 51 14
132 94 141 138 5 25 11 31 33 31 14 0 235 -11 491 -25 256 -14 491 -25 523
-25 l57 0 0 49 0 48 -122 7 c-384 20 -899 46 -933 46 -37 0 -42 3 -53 33 -14
37 -61 98 -62 80z"/>
<path d="M6355 3870 c10 -11 20 -20 23 -20 3 0 -3 9 -13 20 -10 11 -20 20 -23
20 -3 0 3 -9 13 -20z"/>
<path d="M2323 3598 c-153 -143 -289 -270 -302 -283 l-25 -24 21 -23 c11 -13
25 -32 30 -42 10 -17 27 -4 167 127 86 81 225 211 309 290 l152 142 -37 36
-36 35 -279 -258z"/>
<path d="M6425 3820 c3 -4 14 -10 25 -13 11 -3 18 -2 15 3 -3 4 -14 10 -25 13
-11 3 -18 2 -15 -3z"/>
<path d="M6528 3802 c-27 -2 -48 -7 -48 -11 0 -5 13 -138 30 -297 16 -159 30
-297 30 -306 0 -15 7 -17 48 -11 26 3 48 7 49 8 2 1 -12 141 -30 311 l-32 309
-47 -3z"/>
<path d="M2704 3776 c11 -9 27 -16 35 -15 14 0 14 1 1 6 -8 3 -24 10 -35 15
-20 9 -20 9 -1 -6z"/>
<path d="M3795 3427 l-354 -360 24 -19 c23 -18 34 -46 65 -165 9 -35 8 -48 -5
-73 -9 -17 -20 -28 -25 -25 -6 3 -7 0 -4 -8 6 -18 -70 -99 -109 -115 -16 -7
-38 -10 -50 -8 -59 12 -111 16 -96 6 8 -5 35 -10 58 -12 24 -1 45 -7 47 -13
17 -55 184 -497 306 -811 l151 -391 43 21 c24 11 44 23 44 27 0 3 -45 122
-101 265 -170 437 -349 914 -349 930 0 8 6 17 14 20 8 3 27 23 42 45 24 34 31
39 53 34 26 -7 808 -137 893 -149 43 -7 46 -6 41 13 -3 11 -1 34 5 50 10 29
10 29 -36 36 -45 6 -690 111 -838 135 l-70 12 -16 62 -17 61 359 360 359 360
-40 36 -40 36 -354 -360z"/>
<path d="M4250 3710 c8 -5 20 -10 25 -10 6 0 3 5 -5 10 -8 5 -19 10 -25 10 -5
0 -3 -5 5 -10z"/>
<path d="M7190 3429 c-217 -154 -401 -284 -409 -288 -12 -7 -9 -15 16 -39 32
-32 43 -71 43 -156 0 -70 -37 -131 -108 -181 -49 -34 -64 -39 -107 -38 -30 0
-42 -2 -31 -7 17 -6 33 -72 122 -502 56 -272 104 -511 108 -531 6 -34 7 -35
42 -27 20 5 42 6 49 4 11 -4 -90 520 -201 1046 -5 21 2 30 39 57 25 17 58 52
73 78 27 47 31 81 21 186 -2 24 23 44 263 214 146 104 329 232 407 287 l141
99 -36 39 c-19 22 -36 40 -36 39 -1 -1 -179 -127 -396 -280z"/>
<path d="M7677 3619 c7 -7 15 -10 18 -7 3 3 -2 9 -12 12 -14 6 -15 5 -6 -5z"/>
<path d="M2055 3180 c16 -67 16 -89 0 -124 -9 -20 -21 -33 -26 -30 -5 3 -6 -1
-3 -9 3 -9 -13 -31 -42 -56 -45 -39 -73 -54 -58 -29 4 7 3 8 -5 4 -6 -4 -9
-11 -6 -16 6 -10 -31 -20 -80 -19 -48 0 -108 20 -138 46 -21 18 -21 18 -7 -1
24 -31 90 -56 149 -56 86 0 154 41 211 128 l15 23 485 -81 c267 -44 497 -83
513 -86 24 -5 27 -3 27 20 0 13 4 36 10 50 5 14 7 26 4 26 -2 0 -234 38 -514
85 -280 47 -512 85 -515 85 -3 0 -5 8 -5 18 0 9 -5 24 -11 32 -8 12 -9 9 -4
-10z"/>
<path d="M1640 2996 c0 -2 8 -10 18 -17 15 -13 16 -12 3 4 -13 16 -21 21 -21
13z"/>
<path d="M6125 2959 c-336 -60 -946 -175 -1075 -203 -63 -14 -116 -22 -118
-18 -10 29 -45 73 -74 92 l-33 23 36 -34 c55 -52 82 -113 76 -169 -7 -60 -36
-132 -50 -123 -6 3 -7 1 -3 -5 8 -14 -67 -70 -103 -78 -14 -3 -37 -10 -51 -15
-18 -6 -13 -7 20 -3 25 3 64 17 88 31 47 27 102 102 102 140 0 15 8 27 23 33
35 15 939 187 1287 245 161 26 146 19 146 75 0 62 20 61 -271 9z"/>
<path d="M5663 2392 c-402 -268 -905 -599 -1117 -737 -213 -137 -394 -255
-403 -261 -14 -10 -14 -13 2 -38 34 -51 15 -218 -28 -254 -8 -7 -18 -8 -22 -4
-5 4 -5 2 -1 -5 4 -7 -9 -23 -31 -40 -34 -26 -43 -28 -124 -28 -54 0 -82 -3
-72 -9 27 -15 139 -9 175 9 84 43 130 117 131 210 l1 60 100 65 c336 215 966
629 1527 1001 l646 429 -21 45 c-12 24 -23 44 -26 44 -3 0 -334 -219 -737
-487z"/>
<path d="M6469 2777 c18 -23 64 -47 88 -46 10 0 0 7 -21 15 -22 8 -49 22 -60
32 -20 16 -20 16 -7 -1z"/>
<path d="M3145 2726 c10 -14 19 -26 22 -26 7 0 -17 39 -28 46 -6 3 -3 -5 6
-20z"/>
<path d="M3180 2696 c0 -3 9 -10 20 -16 11 -6 20 -8 20 -6 0 3 -9 10 -20 16
-11 6 -20 8 -20 6z"/>
<path d="M4547 2500 l22 -25 -196 -365 c-107 -201 -230 -430 -273 -510 -74
-139 -77 -145 -56 -153 11 -5 31 -17 43 -29 20 -19 22 -19 31 -1 5 10 111 208
235 440 189 352 288 540 305 574 2 4 -9 10 -23 13 -14 4 -45 23 -68 43 -23 21
-32 26 -20 13z"/>
<path d="M4678 2433 c7 -3 16 -2 19 1 4 3 -2 6 -13 5 -11 0 -14 -3 -6 -6z"/>
<path d="M7056 1600 c38 -44 54 -87 54 -145 0 -75 -24 -121 -61 -117 -4 1 -6
-8 -5 -20 0 -12 -5 -23 -13 -26 -9 -3 -11 0 -6 8 6 9 3 9 -14 0 -12 -6 -18
-16 -15 -22 5 -7 1 -9 -9 -5 -10 3 -17 3 -17 -2 0 -4 -22 -8 -49 -10 -54 -2
-111 17 -152 52 -14 12 -8 6 13 -14 93 -89 243 -67 313 45 25 42 30 59 29 110
-1 68 -18 108 -61 146 l-28 25 21 -25z"/>
<path d="M3750 1106 c0 -2 8 -10 18 -17 15 -13 16 -12 3 4 -13 16 -21 21 -21
13z"/>
<path d="M3790 1066 c0 -2 8 -10 18 -17 15 -13 16 -12 3 4 -13 16 -21 21 -21
13z"/>
</g>
</svg>
